<svg xmlns="http://www.w3.org/2000/svg" stroke-miterlimit="2" stroke-linejoin="round" clip-rule="evenodd" fill-rule="evenodd" viewBox="0 0 32 32"><g transform="scale(.21157 .17778)"><path fill="none" d="M0 0h151.25v180H0z"/><clipPath id="a"><path d="M0 0h151.25v180H0z"/></clipPath><g clip-path="url(#a)"><path fill="context-fill" d="M94.724 63.796c1.353-1.038 2.171-2.82 2.171-4.733 0-1.914-.818-3.696-2.17-4.734L61.637 29.017c-1.456-1.11-3.304-1.19-4.822-.203-1.518.987-2.46 2.88-2.46 4.936v50.625c0 2.055.942 3.949 2.46 4.936 1.518.987 3.366.906 4.822-.203l33.086-25.312zM63.81 74.073l19.62-15.01-19.62-15.01v30.02z"/><path fill="context-fill"  d="M151.25 16.875c0-4.48-1.494-8.768-4.155-11.932C144.438 1.779 140.832 0 137.07 0H14.179C10.417 0 6.81 1.779 4.154 4.943 1.493 8.107-.001 12.396-.001 16.875v157.5c0 2.236 1.111 4.254 2.832 5.154 1.72.893 3.72.492 5.1-1.02 0 0 20.499-22.514 28.01-30.769.869-.956 2.017-1.49 3.204-1.49h97.925c3.762 0 7.368-1.78 10.025-4.943 2.66-3.164 4.154-7.453 4.154-11.932v-112.5zM9.451 161.529l20.074-22.057c2.619-2.876 6.055-4.472 9.619-4.472h97.925c1.252 0 2.457-.59 3.341-1.646.889-1.054 1.385-2.489 1.385-3.98v-112.5c0-1.49-.496-2.924-1.385-3.979-.884-1.055-2.089-1.645-3.341-1.645H14.179c-1.252 0-2.458.59-3.342 1.645-.888 1.055-1.385 2.49-1.385 3.98v144.654z"/><path fill="context-fill"  d="M23.633 106.875v11.25c0 3.105 2.117 5.625 4.726 5.625 2.61 0 4.727-2.52 4.727-5.625v-11.25c0-3.105-2.118-5.625-4.727-5.625-2.609 0-4.726 2.52-4.726 5.625zM42.539 106.875v11.25c0 3.105 2.117 5.625 4.726 5.625 2.61 0 4.727-2.52 4.727-5.625v-11.25c0-3.105-2.118-5.625-4.727-5.625-2.609 0-4.726 2.52-4.726 5.625zM66.172 118.125h56.719c2.609 0 4.726-2.52 4.726-5.625s-2.117-5.625-4.726-5.625H66.17c-2.608 0-4.726 2.52-4.726 5.625s2.118 5.625 4.727 5.625z"/></g></g></svg>